<svg version="1.1" xmlns="http://www.w3.org/2000/svg" xmlns:xlink="http://www.w3.org/1999/xlink" viewBox="0 0 172 172"><g fill="none" fill-rule="nonzero" stroke="none" stroke-width="1" stroke-linecap="butt" stroke-linejoin="miter" stroke-miterlimit="10" stroke-dasharray="" stroke-dashoffset="0" font-family="none" font-weight="none" font-size="none" text-anchor="none" style="mix-blend-mode: normal"><path d="M0,172v-172h172v172z" fill="none"></path><g fill="#ffffff"><path d="M85.89502,14.23535c-3.95528,0.05796 -7.11579,3.30931 -7.06169,7.26465v57.33333c-0.03655,2.58456 1.32136,4.98858 3.55376,6.29153c2.2324,1.30295 4.99342,1.30295 7.22582,0c2.2324,-1.30295 3.59031,-3.70697 3.55376,-6.29153v-57.33333c0.02648,-1.93592 -0.73136,-3.80021 -2.10105,-5.16858c-1.36969,-1.36837 -3.23471,-2.12442 -5.1706,-2.09607zM61.02865,34.3846c-1.12796,-0.00249 -2.24059,0.26128 -3.2474,0.76986c-21.49326,10.47035 -36.28125,32.57148 -36.28125,58.01221c0,35.53864 28.96136,64.5 64.5,64.5c35.53864,0 64.5,-28.96136 64.5,-64.5c0,-25.44148 -14.78655,-47.53857 -36.27425,-58.01221c-2.30169,-1.12326 -5.02783,-0.93309 -7.15126,0.49888c-2.12344,1.43196 -3.32149,3.88811 -3.14276,6.44302c0.17873,2.55491 1.70707,4.82033 4.0092,5.94271c16.6963,8.13819 28.22575,25.23275 28.22575,45.1276c0,27.7932 -22.37347,50.16667 -50.16667,50.16667c-27.7932,0 -50.16667,-22.37347 -50.16667,-50.16667c0,-19.89561 11.52084,-36.99329 28.21875,-45.1276c3.03411,-1.42547 4.67488,-4.76362 3.95015,-8.03662c-0.72473,-3.27301 -3.62132,-5.60647 -6.97359,-5.61784z"></path></g></g></svg>